{"title":"Peep.World.[2010].Dvdrip.XviD-Kna","uid":6686386,"size":1174814720,"categoryP":"video","categoryS":"movies","magnet":"?xt=urn:btih:0af3ec2883dfba3ef3b9bb57a7f6ad8d8889784b&amp;dn=Peep.World.%5B2010%5D.Dvdrip.XviD-Kna&amp;tr=udp%3A%2F%2Ftracker.openbittorrent.com%3A80&amp;tr=udp%3A%2F%2Fopen.demonii.com%3A1337&amp;tr=udp%3A%2F%2Ftracker.coppersurfer.tk%3A6969&amp;tr=udp%3A%2F%2Fexodus.desync.com%3A6969","seeders":0,"leechers":1,"uploader":"Jon.Pson","files":-1,"time":1316421099,"description":"Four siblings implode after the release of a book written about them.\n\n\n\nGeneral\nComplete name                    : Peep.World.[2010].Dvdrip.XviD-KnÃƒÂ£\\Peep.World.[2010].Dvdrip.XviD-KnÃƒÂ£.avi\nFormat                           : AVI\nFormat/Info                      : Audio Video Interleave\nFile size                        : 1.09 GiB\nDuration                         : 1h 19mn\nOverall bit rate                 : 1 975 Kbps\nWriting application              : VirtualDubMod 1.5.4.1 (build 2178/release)\nWriting library                  : VirtualDubMod build 2178/release\n\nVideo\nID                               : 0\nFormat                           : MPEG-4 Visual\nFormat profile                   : Advanced Simple@L5\nFormat settings, BVOP            : No\nFormat settings, QPel            : No\nFormat settings, GMC             : No warppoints\nFormat settings, Matrix          : Custom\nCodec ID                         : XVID\nCodec ID/Hint                    : XviD\nDuration                         : 1h 19mn\nBit rate                         : 1 520 Kbps\nWidth                            : 720 pixels\nHeight                           : 320 pixels\nDisplay aspect ratio             : 2.25:1\nFrame rate                       : 23.976 fps\nColor space                      : YUV\nChroma subsampling               : 4:2:0\nBit depth                        : 8 bits\nScan type                        : Progressive\nCompression mode                 : Lossy\nBits/(Pixel*Frame)               : 0.275\nStream size                      : 862 MiB (77%)\nWriting library                  : XviD 1.2.1 (UTC 2008-12-04)\n\nAudio\nID                               : 1\nFormat                           : AC-3\nFormat/Info                      : Audio Coding 3\nMode extension                   : CM (complete main)\nCodec ID                         : 2000\nDuration                         : 1h 19mn\nBit rate mode                    : Constant\nBit rate                         : 448 Kbps\nChannel(s)                       : 6 channels\nChannel positions                : Front: L C R, Side: L R, LFE\nSampling rate                    : 48.0 KHz\nBit depth                        : 16 bits\nCompression mode                 : Lossy\nStream size                      : 254 MiB (23%)\nAlignment                        : Split accross interleaves\nInterleave, duration             : 96 ms (2.30 video frames)\nInterleave, preload duration     : 96 ms\nLanguage                         : English\n\n","torrent":{"xt":"urn:btih:0af3ec2883dfba3ef3b9bb57a7f6ad8d8889784b","amp;dn":"Peep.World.%5B2010%5D.Dvdrip.XviD-Kna","amp;tr":["udp%3A%2F%2Ftracker.openbittorrent.com%3A80","udp%3A%2F%2Fopen.demonii.com%3A1337","udp%3A%2F%2Ftracker.coppersurfer.tk%3A6969","udp%3A%2F%2Fexodus.desync.com%3A6969"],"infoHash":"0af3ec2883dfba3ef3b9bb57a7f6ad8d8889784b","infoHashBuffer":{"type":"Buffer","data":[10,243,236,40,131,223,186,62,243,185,187,87,167,246,173,141,136,137,120,75]},"announce":[],"urlList":[]}}